{
  "source": "C:\\Users\\Peter\\Desktop\\stuff\\MIUN\\quantitative_research\\video_compression\\videos\\BVI-HD\\BVI-HD_CDVL_videos\\ORIG\\ParkPlay_1920x1080_50fps.mp4",
  "output": "C:\\Users\\Peter\\Desktop\\stuff\\MIUN\\quantitative_research\\video_compression\\compressed_videos\\BVI-HD\\vp9\\3\\ParkPlay_1920x1080_50fps_vp9.webm",
  "codec": "vp9",
  "ok": "Input #0, mov,mp4,m4a,3gp,3g2,mj2, from 'C:\\Users\\Peter\\Desktop\\stuff\\MIUN\\quantitative_research\\video_compression\\videos\\BVI-HD\\BVI-HD_CDVL_videos\\ORIG\\ParkPlay_1920x1080_50fps.mp4':\n  Metadata:\n    major_brand     : isom\n    minor_version   : 512\n    compatible_brands: isomiso2avc1mp41\n    encoder         : Lavf54.28.101\n  Duration: 00:00:05.00, start: 0.000000, bitrate: 620563 kb/s\n  Stream #0:0[0x1](und): Video: h264 (High 4:4:4 Predictive) (avc1 / 0x31637661), yuv420p(progressive), 1920x1080, 620558 kb/s, 50 fps, 50 tbr, 50 tbn (default)\n    Metadata:\n      handler_name    : VideoHandler\n      vendor_id       : [0][0][0][0]\n[out#0/webm @ 000001a9cde4f040] Codec AVOption b:a (set bitrate (in bits/s)) has not been used for any stream. The most likely reason is either wrong type (e.g. a video option with no video streams) or that it is a private option of some decoder which was not actually used for any stream.\nStream mapping:\n  Stream #0:0 -> #0:0 (h264 (native) -> vp9 (libvpx-vp9))\nPress [q] to stop, [?] for help\n[libvpx-vp9 @ 000001a9cdc50a80] v1.15.2-100-g40561f514\nOutput #0, webm, to 'C:\\Users\\Peter\\Desktop\\stuff\\MIUN\\quantitative_research\\video_compression\\compressed_videos\\BVI-HD\\vp9\\3\\ParkPlay_1920x1080_50fps_vp9.webm':\n  Metadata:\n    major_brand     : isom\n    minor_version   : 512\n    compatible_brands: isomiso2avc1mp41\n    encoder         : Lavf62.3.100\n  Stream #0:0(und): Video: vp9, yuv420p(tv, progressive), 1920x1080, q=2-31, 3000 kb/s, 50 fps, 1k tbn (default)\n    Metadata:\n      encoder         : Lavc62.11.100 libvpx-vp9\n      handler_name    : VideoHandler\n      vendor_id       : [0][0][0][0]\n    Side data:\n      cpb: bitrate max/min/avg: 0/0/0 buffer size: 3000000 vbv_delay: N/A\nframe=    0 fps=0.0 q=0.0 size=       0KiB time=N/A bitrate=N/A speed=N/A elapsed=0:00:00.51    \nframe=    1 fps=0.8 q=26.0 size=       1KiB time=00:00:00.02 bitrate= 253.6kbits/s speed=0.0165x elapsed=0:00:01.21    \nframe=    7 fps=4.0 q=58.0 size=       1KiB time=00:00:00.14 bitrate=  36.2kbits/s speed=0.0809x elapsed=0:00:01.72    \nframe=   11 fps=4.9 q=58.0 size=       1KiB time=00:00:00.22 bitrate=  23.1kbits/s speed=0.0978x elapsed=0:00:02.24    \nframe=   16 fps=5.8 q=57.0 size=       1KiB time=00:00:00.32 bitrate=  15.8kbits/s speed=0.115x elapsed=0:00:02.77    \nframe=   20 fps=6.0 q=57.0 size=       1KiB time=00:00:00.40 bitrate=  12.7kbits/s speed=0.121x elapsed=0:00:03.30    \nframe=   24 fps=6.3 q=57.0 size=       1KiB time=00:00:00.48 bitrate=  10.6kbits/s speed=0.125x elapsed=0:00:03.82    \nframe=   29 fps=6.6 q=57.0 size=       1KiB time=00:00:00.58 bitrate=   8.7kbits/s speed=0.133x elapsed=0:00:04.36    \nframe=   33 fps=6.8 q=58.0 size=       1KiB time=00:00:00.66 bitrate=   7.7kbits/s speed=0.135x elapsed=0:00:04.88    \nframe=   37 fps=6.8 q=56.0 size=       1KiB time=00:00:00.74 bitrate=   6.9kbits/s speed=0.137x elapsed=0:00:05.41    \nframe=   41 fps=6.9 q=57.0 size=       1KiB time=00:00:00.82 bitrate=   6.2kbits/s speed=0.138x elapsed=0:00:05.92    \nframe=   45 fps=7.0 q=57.0 size=       1KiB time=00:00:00.90 bitrate=   5.6kbits/s speed=0.14x elapsed=0:00:06.44    \nframe=   49 fps=7.0 q=58.0 size=       1KiB time=00:00:00.98 bitrate=   5.2kbits/s speed=0.14x elapsed=0:00:06.97    \nframe=   52 fps=6.9 q=45.0 size=       1KiB time=00:00:01.04 bitrate=   4.9kbits/s speed=0.139x elapsed=0:00:07.50    \nframe=   57 fps=7.1 q=58.0 size=       1KiB time=00:00:01.14 bitrate=   4.4kbits/s speed=0.142x elapsed=0:00:08.04    \nframe=   60 fps=7.0 q=57.0 size=       1KiB time=00:00:01.20 bitrate=   4.2kbits/s speed=0.14x elapsed=0:00:08.59    \nframe=   63 fps=6.9 q=57.0 size=       1KiB time=00:00:01.26 bitrate=   4.0kbits/s speed=0.138x elapsed=0:00:09.11    \nframe=   68 fps=7.1 q=57.0 size=       1KiB time=00:00:01.36 bitrate=   3.7kbits/s speed=0.141x elapsed=0:00:09.63    \nframe=   72 fps=7.1 q=56.0 size=       1KiB time=00:00:01.44 bitrate=   3.5kbits/s speed=0.142x elapsed=0:00:10.17    \nframe=   75 fps=7.0 q=56.0 size=       1KiB time=00:00:01.50 bitrate=   3.4kbits/s speed=0.14x elapsed=0:00:10.67    \nframe=   80 fps=7.1 q=55.0 size=       1KiB time=00:00:01.60 bitrate=   3.2kbits/s speed=0.143x elapsed=0:00:11.20    \nframe=   84 fps=7.2 q=55.0 size=       1KiB time=00:00:01.68 bitrate=   3.0kbits/s speed=0.143x elapsed=0:00:11.72    \nframe=   87 fps=7.1 q=55.0 size=       1KiB time=00:00:01.74 bitrate=   2.9kbits/s speed=0.142x elapsed=0:00:12.27    \nframe=   91 fps=7.1 q=55.0 size=       1KiB time=00:00:01.82 bitrate=   2.8kbits/s speed=0.142x elapsed=0:00:12.79    \nframe=   94 fps=7.1 q=44.0 size=       1KiB time=00:00:01.88 bitrate=   2.7kbits/s speed=0.141x elapsed=0:00:13.30    \nframe=   98 fps=7.1 q=56.0 size=       1KiB time=00:00:01.96 bitrate=   2.6kbits/s speed=0.142x elapsed=0:00:13.82    \nframe=  101 fps=7.0 q=56.0 size=       1KiB time=00:00:02.02 bitrate=   2.5kbits/s speed=0.141x elapsed=0:00:14.35    \nframe=  105 fps=7.0 q=56.0 size=       1KiB time=00:00:02.10 bitrate=   2.4kbits/s speed=0.141x elapsed=0:00:14.89    \nframe=  109 fps=7.1 q=55.0 size=       1KiB time=00:00:02.18 bitrate=   2.3kbits/s speed=0.141x elapsed=0:00:15.43    \nframe=  112 fps=7.0 q=45.0 size=       1KiB time=00:00:02.24 bitrate=   2.3kbits/s speed=0.14x elapsed=0:00:15.97    \nframe=  116 fps=7.0 q=55.0 size=       1KiB time=00:00:02.32 bitrate=   2.2kbits/s speed=0.14x elapsed=0:00:16.51    \nframe=  119 fps=7.0 q=55.0 size=       1KiB time=00:00:02.38 bitrate=   2.1kbits/s speed=0.14x elapsed=0:00:17.05    \nframe=  122 fps=6.9 q=55.0 size=       1KiB time=00:00:02.44 bitrate=   2.1kbits/s speed=0.139x elapsed=0:00:17.60    \nframe=  125 fps=6.9 q=56.0 size=       1KiB time=00:00:02.50 bitrate=   2.0kbits/s speed=0.138x elapsed=0:00:18.11    \nframe=  128 fps=6.9 q=56.0 size=       1KiB time=00:00:02.56 bitrate=   2.0kbits/s speed=0.137x elapsed=0:00:18.64    \nframe=  132 fps=6.9 q=54.0 size=    1024KiB time=00:00:02.64 bitrate=3177.5kbits/s speed=0.138x elapsed=0:00:19.17    \nframe=  135 fps=6.8 q=45.0 size=    1024KiB time=00:00:02.70 bitrate=3106.9kbits/s speed=0.137x elapsed=0:00:19.71    \nframe=  139 fps=6.9 q=55.0 size=    1024KiB time=00:00:02.78 bitrate=3017.5kbits/s speed=0.137x elapsed=0:00:20.25    \nframe=  142 fps=6.8 q=55.0 size=    1024KiB time=00:00:02.84 bitrate=2953.7kbits/s speed=0.137x elapsed=0:00:20.79    \nframe=  145 fps=6.8 q=55.0 size=    1024KiB time=00:00:02.90 bitrate=2892.6kbits/s speed=0.136x elapsed=0:00:21.32    \nframe=  148 fps=6.8 q=56.0 size=    1024KiB time=00:00:02.96 bitrate=2834.0kbits/s speed=0.136x elapsed=0:00:21.84    \nframe=  152 fps=6.8 q=56.0 size=    1024KiB time=00:00:03.04 bitrate=2759.4kbits/s speed=0.136x elapsed=0:00:22.37    \nframe=  155 fps=6.8 q=54.0 size=    1024KiB time=00:00:03.10 bitrate=2706.0kbits/s speed=0.135x elapsed=0:00:22.91    \nframe=  158 fps=6.7 q=56.0 size=    1024KiB time=00:00:03.16 bitrate=2654.6kbits/s speed=0.135x elapsed=0:00:23.45    \nframe=  161 fps=6.7 q=55.0 size=    1024KiB time=00:00:03.22 bitrate=2605.2kbits/s speed=0.134x elapsed=0:00:23.99    \nframe=  164 fps=6.7 q=55.0 size=    1024KiB time=00:00:03.28 bitrate=2557.5kbits/s speed=0.134x elapsed=0:00:24.53    \nframe=  167 fps=6.7 q=54.0 size=    1024KiB time=00:00:03.34 bitrate=2511.6kbits/s speed=0.133x elapsed=0:00:25.04    \nframe=  170 fps=6.6 q=55.0 size=    1024KiB time=00:00:03.40 bitrate=2467.2kbits/s speed=0.133x elapsed=0:00:25.57    \nframe=  173 fps=6.6 q=54.0 size=    1024KiB time=00:00:03.46 bitrate=2424.5kbits/s speed=0.132x elapsed=0:00:26.11    \nframe=  176 fps=6.6 q=55.0 size=    1024KiB time=00:00:03.52 bitrate=2383.1kbits/s speed=0.132x elapsed=0:00:26.63    \nframe=  179 fps=6.6 q=54.0 size=    1024KiB time=00:00:03.58 bitrate=2343.2kbits/s speed=0.132x elapsed=0:00:27.17    \nframe=  182 fps=6.6 q=56.0 size=    1024KiB time=00:00:03.64 bitrate=2304.6kbits/s speed=0.131x elapsed=0:00:27.70    \nframe=  185 fps=6.6 q=55.0 size=    1024KiB time=00:00:03.70 bitrate=2267.2kbits/s speed=0.131x elapsed=0:00:28.23    \nframe=  188 fps=6.5 q=56.0 size=    1024KiB time=00:00:03.76 bitrate=2231.0kbits/s speed=0.131x elapsed=0:00:28.77    \nframe=  191 fps=6.5 q=54.0 size=    1024KiB time=00:00:03.82 bitrate=2196.0kbits/s speed=0.13x elapsed=0:00:29.31    \nframe=  194 fps=6.5 q=55.0 size=    1024KiB time=00:00:03.88 bitrate=2162.0kbits/s speed=0.13x elapsed=0:00:29.83    \nframe=  197 fps=6.5 q=53.0 size=    1024KiB time=00:00:03.94 bitrate=2129.1kbits/s speed=0.13x elapsed=0:00:30.39    \nframe=  200 fps=6.5 q=55.0 size=    1024KiB time=00:00:04.00 bitrate=2097.2kbits/s speed=0.129x elapsed=0:00:30.89    \nframe=  204 fps=6.5 q=55.0 size=    1024KiB time=00:00:04.08 bitrate=2056.0kbits/s speed=0.13x elapsed=0:00:31.42    \nframe=  207 fps=6.5 q=46.0 size=    1024KiB time=00:00:04.12 bitrate=2036.1kbits/s speed=0.129x elapsed=0:00:31.97    \nframe=  210 fps=6.5 q=54.0 size=    1024KiB time=00:00:04.20 bitrate=1997.3kbits/s speed=0.129x elapsed=0:00:32.49    \nframe=  213 fps=6.5 q=46.0 size=    1024KiB time=00:00:04.26 bitrate=1969.2kbits/s speed=0.129x elapsed=0:00:33.01    \nframe=  217 fps=6.5 q=54.0 size=    1024KiB time=00:00:04.34 bitrate=1932.9kbits/s speed=0.129x elapsed=0:00:33.54    \nframe=  220 fps=6.5 q=55.0 size=    1024KiB time=00:00:04.40 bitrate=1906.5kbits/s speed=0.129x elapsed=0:00:34.05    \nframe=  224 fps=6.5 q=55.0 size=    1024KiB time=00:00:04.48 bitrate=1872.5kbits/s speed=0.129x elapsed=0:00:34.59    \nframe=  226 fps=6.4 q=55.0 size=    1024KiB time=00:00:04.52 bitrate=1855.9kbits/s speed=0.129x elapsed=0:00:35.13    \nframe=  226 fps=6.3 q=55.0 size=    1024KiB time=00:00:04.52 bitrate=1855.9kbits/s speed=0.127x elapsed=0:00:35.64    \nframe=  226 fps=6.2 q=55.0 size=    1024KiB time=00:00:04.52 bitrate=1855.9kbits/s speed=0.125x elapsed=0:00:36.20    \nframe=  226 fps=6.2 q=55.0 size=    1024KiB time=00:00:04.52 bitrate=1855.9kbits/s speed=0.123x elapsed=0:00:36.72    \nframe=  226 fps=6.1 q=55.0 size=    1024KiB time=00:00:04.52 bitrate=1855.9kbits/s speed=0.121x elapsed=0:00:37.24    \nframe=  226 fps=6.0 q=55.0 size=    1024KiB time=00:00:04.52 bitrate=1855.9kbits/s speed=0.12x elapsed=0:00:37.76    \nframe=  226 fps=5.9 q=55.0 size=    1024KiB time=00:00:04.52 bitrate=1855.9kbits/s speed=0.118x elapsed=0:00:38.28    \nframe=  226 fps=5.8 q=55.0 size=    1024KiB time=00:00:04.52 bitrate=1855.9kbits/s speed=0.116x elapsed=0:00:38.80    \n[out#0/webm @ 000001a9cde4f040] video:2031KiB audio:0KiB subtitle:0KiB other streams:0KiB global headers:0KiB muxing overhead: 0.119552%\nframe=  250 fps=6.4 q=54.0 Lsize=    2033KiB time=00:00:05.00 bitrate=3331.1kbits/s speed=0.129x elapsed=0:00:38.82    \n",
  "seconds": 39.11547303199768,
  "probe_out": {}
}